<svg xmlns="http://www.w3.org/2000/svg" width="41" height="44" viewBox="0 0 41 44" fill="none">
    <circle cx="22.7646" cy="25.1176" r="18.2353" fill="#8369EA" fill-opacity="0.1"/>
    <path d="M14.1182 4.68296C6.6614 6.01064 1 12.5266 1 20.3649C1 29.1624 8.13175 36.2941 16.9292 36.2941C25.1997 36.2941 31.9981 29.9911 32.7828 21.9266M14.1182 4.68296C15.0307 4.52049 15.97 4.43571 16.9292 4.43571C17.8884 4.43571 18.8278 4.52049 19.7402 4.68296M14.1182 4.68296L12.8688 1H16.9292H20.9896L19.7402 4.68296M19.7402 4.68296C26.6957 5.92139 32.0891 11.674 32.7828 18.8032M32.7828 18.8032C32.8328 19.317 32.8584 19.838 32.8584 20.3649C32.8584 20.8918 32.8328 21.4128 32.7828 21.9266M32.7828 18.8032H34.7324V21.9266H32.7828" stroke="#7056E3" stroke-width="1.66667"/>
    <path d="M29.7352 20.3649C29.7352 27.4374 24.0018 33.1707 16.9294 33.1707C9.8569 33.1707 4.12354 27.4374 4.12354 20.3649C4.12354 13.2924 9.8569 7.55908 16.9294 7.55908C24.0018 7.55908 29.7352 13.2924 29.7352 20.3649Z" stroke="#7056E3" stroke-width="1.66667"/>
    <path d="M16.9292 7.55908V10.0578M16.9292 30.672V33.1707" stroke="#7056E3" stroke-width="1.66667"/>
    <path d="M25.9844 11.3096L24.2175 13.0764M9.64104 27.6529L7.8742 29.4197" stroke="#7056E3" stroke-width="1.66667"/>
    <path d="M29.7349 20.3649L27.2362 20.3649M6.6219 20.3649L4.1232 20.3649" stroke="#7056E3" stroke-width="1.66667"/>
    <path d="M25.9844 29.4203L24.2175 27.6534M9.64105 13.077L7.8742 11.3101" stroke="#7056E3" stroke-width="1.66667"/>
    <path d="M14.7427 16.3046L16.929 16.3046V25.05H19.1154H14.7427" stroke="#7056E3" stroke-width="1.66667"/>
</svg>