<?xml version="1.0" encoding="UTF-8" standalone="no"?> <svg width="512" height="512" viewBox="0 0 512 512" fill="none" xmlns="http://www.w3.org/2000/svg">
<path d="M32 96H480V416H32V96Z" fill="#FBFBFB"/>
<path d="M32 96H480V200H32V96Z" fill="#2A2FAF"/>
<path d="M32 312H480V416H32V312Z" fill="#2A2FAF"/>
<path d="M183.998 264L187.59 275.056H199.215L189.81 281.889L193.403 292.944L183.998 286.111L174.594 292.944L178.186 281.889L168.781 275.056H180.406L183.998 264Z" fill="#2A2FAF"/>
<path d="M255.998 240L259.59 251.056H271.215L261.81 257.889L265.403 268.944L255.998 262.111L246.594 268.944L250.186 257.889L240.781 251.056H252.406L255.998 240Z" fill="#2A2FAF"/>
<path d="M183.998 216L187.59 227.056H199.215L189.81 233.889L193.403 244.944L183.998 238.111L174.594 244.944L178.186 233.889L168.781 227.056H180.406L183.998 216Z" fill="#2A2FAF"/>
<path d="M327.998 264L331.59 275.056H343.215L333.81 281.889L337.403 292.944L327.998 286.111L318.594 292.944L322.186 281.889L312.781 275.056H324.406L327.998 264Z" fill="#2A2FAF"/>
<path d="M327.998 216L331.59 227.056H343.215L333.81 233.889L337.403 244.944L327.998 238.111L318.594 244.944L322.186 233.889L312.781 227.056H324.406L327.998 216Z" fill="#2A2FAF"/>
</svg>
