<svg xmlns="http://www.w3.org/2000/svg" width="86" height="86" viewBox="0 0 86 86" fill="none">
<path d="M85.3892 6.50913L79.4909 0.610815C79.1229 0.24285 78.6307 0.0257488 78.1108 0.00214762C77.591 -0.0214536 77.0811 0.150151 76.6814 0.483259L65.3108 9.95869L49.1452 12.8115C48.7238 12.8858 48.3355 13.088 48.033 13.3905L1.82939 59.5941C0.657904 60.7683 0 62.3592 0 64.0179C0 65.6765 0.657904 67.2675 1.82939 68.4417L17.5583 84.1706C18.7325 85.3421 20.3235 86 21.9821 86C23.6408 86 25.2317 85.3421 26.4059 84.1706L72.6095 37.967C72.912 37.6645 73.1142 37.2762 73.1885 36.8548L76.0413 20.6892L85.5167 9.31865C85.8498 8.91887 86.0215 8.40899 85.9979 7.88915C85.9743 7.36931 85.7571 6.87708 85.3892 6.50913Z" fill="url(#paint0_linear)"/>
<path d="M73.1884 36.8548L76.0412 20.6892L85.5167 9.31865C85.8498 8.91887 86.0214 8.40899 85.9978 7.88915C85.9742 7.36931 85.7571 6.87708 85.3891 6.50913L79.4908 0.610815C79.1228 0.24285 78.6306 0.0257488 78.1108 0.00214762C77.5909 -0.0214536 77.0811 0.150151 76.6813 0.483259L65.3108 9.95869L49.1451 12.8115C48.7237 12.8858 48.3355 13.088 48.0329 13.3905L72.6094 37.967C72.9119 37.6645 73.1141 37.2762 73.1884 36.8548Z" fill="url(#paint1_linear)"/>
<path d="M29.8494 46.3155L39.6784 56.1445L21.9861 73.8369L12.157 64.0078L29.8494 46.3155Z" fill="url(#paint2_linear)"/>
<path d="M32.7957 63.1542C32.5218 63.1545 32.2505 63.1008 31.9975 62.9959C31.7444 62.8911 31.5146 62.7373 31.3212 62.5434L23.4567 54.6789C23.0656 54.2878 22.8459 53.7574 22.8459 53.2043C22.8459 52.6512 23.0656 52.1208 23.4567 51.7297C23.8478 51.3386 24.3782 51.1189 24.9313 51.1189C25.4844 51.1189 26.0148 51.3386 26.4059 51.7297L34.2704 59.5941C34.5621 59.8858 34.7608 60.2574 34.8412 60.6619C34.9217 61.0665 34.8804 61.4858 34.7226 61.8669C34.5647 62.248 34.2974 62.5737 33.9544 62.8028C33.6114 63.032 33.2082 63.1543 32.7957 63.1542Z" fill="#FB9D8D"/>
<path d="M27.8805 70.0355C27.6066 70.0358 27.3353 69.9821 27.0823 69.8773C26.8292 69.7725 26.5994 69.6187 26.406 69.4248L16.5753 59.5942C16.186 59.2027 15.9678 58.6728 15.9686 58.1208C15.9693 57.5687 16.189 57.0394 16.5794 56.649C16.9698 56.2586 17.4991 56.039 18.0512 56.0383C18.6033 56.0375 19.1331 56.2558 19.5246 56.6451L29.355 66.4756C29.6466 66.7672 29.8452 67.1388 29.9257 67.5433C30.0062 67.9478 29.9649 68.3671 29.807 68.7481C29.6492 69.1292 29.3819 69.4548 29.039 69.684C28.6961 69.9131 28.2929 70.0355 27.8805 70.0355Z" fill="#FB9D8D"/>
<path d="M21.982 75.9338C21.429 75.9338 20.8986 75.7141 20.5075 75.323L10.6769 65.4924C10.4832 65.2987 10.3296 65.0688 10.2248 64.8158C10.12 64.5628 10.066 64.2916 10.066 64.0177C10.066 63.7439 10.12 63.4727 10.2248 63.2197C10.3296 62.9667 10.4832 62.7368 10.6769 62.5431L28.372 44.8482C28.7631 44.4571 29.2935 44.2374 29.8465 44.2374C30.3996 44.2374 30.93 44.4571 31.3211 44.8482L41.1517 54.6788C41.5427 55.0699 41.7624 55.6003 41.7624 56.1534C41.7624 56.7064 41.5427 57.2368 41.1517 57.6279L23.4568 75.323C23.2631 75.5167 23.0332 75.6703 22.7802 75.7751C22.5271 75.8799 22.2559 75.9338 21.982 75.9338ZM15.1003 64.0178L21.982 70.8996L36.7279 56.1537L29.8462 49.272L15.1003 64.0178Z" fill="#D7CDEA"/>
<path d="M51.4739 38.6969C53.7774 38.6969 55.6447 36.8296 55.6447 34.5261C55.6447 32.2227 53.7774 30.3554 51.4739 30.3554C49.1705 30.3554 47.3032 32.2227 47.3032 34.5261C47.3032 36.8296 49.1705 38.6969 51.4739 38.6969Z" fill="url(#paint3_linear)"/>
<path d="M51.4734 40.7794C50.236 40.7802 49.0263 40.4138 47.9973 39.7268C46.9682 39.0397 46.1661 38.0628 45.6925 36.9197C45.2189 35.7766 45.0951 34.5187 45.3367 33.3052C45.5783 32.0917 46.1745 30.9772 47.0498 30.1026C47.777 29.3744 48.6726 28.8369 49.6573 28.5376C50.6419 28.2384 51.6852 28.1867 52.6947 28.3871C53.7041 28.5875 54.6485 29.0338 55.4442 29.6865C56.2399 30.3392 56.8622 31.1781 57.2561 32.1288C57.6501 33.0796 57.8033 34.1129 57.7024 35.137C57.6015 36.1612 57.2494 37.1446 56.6775 38.0002C56.1056 38.8558 55.3314 39.5571 54.4236 40.0419C53.5159 40.5267 52.5025 40.7801 51.4734 40.7796V40.7794ZM49.9988 33.0513C49.7072 33.343 49.5086 33.7146 49.4281 34.1191C49.3477 34.5236 49.389 34.9429 49.5468 35.324C49.7047 35.705 49.972 36.0307 50.3149 36.2598C50.6578 36.489 51.061 36.6113 51.4735 36.6113C51.8859 36.6113 52.2891 36.489 52.632 36.2598C52.975 36.0307 53.2422 35.705 53.4001 35.324C53.5579 34.9429 53.5992 34.5236 53.5188 34.1191C53.4383 33.7146 53.2397 33.343 52.9481 33.0513C52.5566 32.661 52.0263 32.4417 51.4735 32.4417C50.9206 32.4417 50.3903 32.661 49.9988 33.0513Z" fill="#AF9CD4"/>
<path d="M37.7113 44.4759C37.2989 44.476 36.8957 44.3537 36.5527 44.1245C36.2098 43.8954 35.9425 43.5697 35.7846 43.1887C35.6268 42.8076 35.5855 42.3883 35.6659 41.9838C35.7464 41.5793 35.945 41.2077 36.2366 40.916L39.1855 37.9668C39.5766 37.5757 40.107 37.356 40.6601 37.356C41.2132 37.356 41.7436 37.5757 42.1347 37.9668C42.5258 38.3579 42.7455 38.8883 42.7455 39.4414C42.7455 39.9945 42.5258 40.5249 42.1347 40.916L39.1855 43.8651C38.9921 44.059 38.7624 44.2128 38.5094 44.3177C38.2564 44.4225 37.9852 44.4763 37.7113 44.4759Z" fill="#C3B5DF"/>
<path d="M43.6094 50.3742C43.197 50.3741 42.7938 50.2518 42.4509 50.0227C42.1079 49.7935 41.8407 49.4679 41.6828 49.0868C41.525 48.7058 41.4837 48.2865 41.5642 47.882C41.6446 47.4775 41.8432 47.1059 42.1349 46.8143L45.0839 43.865C45.4751 43.4739 46.0055 43.2542 46.5587 43.2543C47.1118 43.2543 47.6422 43.474 48.0333 43.8652C48.4244 44.2563 48.6441 44.7868 48.6441 45.3399C48.6441 45.8931 48.4243 46.4235 48.0332 46.8146L45.0839 49.7638C44.8905 49.9577 44.6606 50.1114 44.4076 50.2161C44.1545 50.3209 43.8833 50.3746 43.6094 50.3742Z" fill="#C3B5DF"/>
<defs>
<linearGradient id="paint0_linear" x1="9.69386" y1="76.3061" x2="82.4401" y2="3.55988" gradientUnits="userSpaceOnUse">
<stop offset="0.015" stop-color="#EBE6F4"/>
<stop offset="1" stop-color="#F5F3FA"/>
</linearGradient>
<linearGradient id="paint1_linear" x1="60.3212" y1="25.6788" x2="82.44" y2="3.55988" gradientUnits="userSpaceOnUse">
<stop offset="0.015" stop-color="#FB9D8D"/>
<stop offset="1" stop-color="#FDCEC6"/>
</linearGradient>
<linearGradient id="paint2_linear" x1="17.0717" y1="68.9224" x2="34.764" y2="51.2301" gradientUnits="userSpaceOnUse">
<stop offset="0.015" stop-color="#FDEEBE"/>
<stop offset="1" stop-color="#FEF7DE"/>
</linearGradient>
<linearGradient id="paint3_linear" x1="173.941" y1="2773.4" x2="457.018" y2="2490.32" gradientUnits="userSpaceOnUse">
<stop offset="0.015" stop-color="#FDEEBE"/>
<stop offset="1" stop-color="#FEF7DE"/>
</linearGradient>
</defs>
</svg>