<svg xmlns="http://www.w3.org/2000/svg" width="86" height="86" viewBox="0 0 86 86" fill="none">
<path d="M82.5963 76.7718L83.4044 81.1497V81.674C83.4044 84.0631 81.4676 86 79.0785 86H6.92154C4.5324 86 2.59558 84.0631 2.59558 81.674V81.1497L2.95446 75.9177L82.5963 76.7718Z" fill="#E8E8E8"/>
<path d="M83.1393 75.1888L83.4044 75.6601V81.1496C82.207 82.0753 80.705 82.6256 79.0785 82.6256H6.92154C5.29498 82.6256 3.79301 82.0753 2.59558 81.1496V75.6304L2.67466 75.1886H83.1393V75.1888Z" fill="#D8D8D8"/>
<path d="M83.4044 23.0657V75.5312C83.4044 77.9203 81.4676 79.8571 79.0785 79.8571H6.92154C6.50089 79.8571 6.09442 79.7971 5.70993 79.6852C3.9105 79.1612 2.95447 77.1206 2.95447 75.1519L3.19413 23.0494L50.1387 21.7824L83.4044 23.0657Z" fill="url(#paint0_linear)"/>
<path d="M5.71027 23.066V79.6841C3.91067 79.1615 2.59558 77.5004 2.59558 75.5312V23.066L4.15293 21.7826L5.71027 23.066Z" fill="#E8E8E8"/>
<path d="M74.0603 6.62701H83.4044C84.8379 6.62701 86 7.78914 86 9.22259V19.9513L85.8269 20.297C85.8269 21.7305 84.6648 22.8926 83.2314 22.8926H2.76861C1.33516 22.8926 0.173035 21.7305 0.173035 20.297V9.39563C0.173035 7.96218 1.33516 6.80005 2.76861 6.80005L3.11468 6.62701H12.6318H74.0603Z" fill="url(#paint1_linear)"/>
<path d="M86 19.9513V20.4704C86 21.9039 84.8379 23.066 83.4044 23.066H2.59557C1.16212 23.066 0 21.9039 0 20.4704V9.22295C0 7.78847 1.16282 6.62738 2.59557 6.62738H3.11469V18.7401C3.11469 19.409 3.65699 19.9513 4.32596 19.9513H86Z" fill="#E5646E"/>
<path d="M15.4004 12.8048H13.67C12.5233 12.8048 11.5936 11.8751 11.5936 10.7284V2.07646C11.5936 0.929734 12.3503 0.173038 13.497 0.173038L13.67 0H15.4004C16.5471 0 17.4769 0.929734 17.4769 2.07646V10.7284L17.3038 10.9014C17.3038 12.0481 16.5471 12.8048 15.4004 12.8048Z" fill="#F8F7F7"/>
<path d="M17.4769 10.7284V10.9014C17.4769 12.0487 16.5477 12.9779 15.4004 12.9779H13.497C12.3497 12.9779 11.4205 12.0487 11.4205 10.9014V2.07646C11.4205 0.929215 12.3497 0 13.497 0H13.67V9.34406C13.67 10.1089 14.2895 10.7284 15.0543 10.7284H17.4769Z" fill="#E8E8E8"/>
<path d="M34.4346 12.8048H32.7042C31.5575 12.8048 30.6277 11.8751 30.6277 10.7284V2.07646C30.6277 0.929734 31.3844 0.173038 32.5312 0.173038L32.7042 0H34.4346C35.5813 0 36.5111 0.929734 36.5111 2.07646V10.7284L36.338 10.9014C36.338 12.0481 35.5813 12.8048 34.4346 12.8048Z" fill="#F8F7F7"/>
<path d="M36.5111 10.7284V10.9014C36.5111 12.0487 35.5818 12.9779 34.4346 12.9779H32.5312C31.3839 12.9779 30.4547 12.0487 30.4547 10.9014V2.07646C30.4547 0.929215 31.3839 0 32.5312 0H32.7042V9.34406C32.7042 10.1089 33.3237 10.7284 34.0885 10.7284H36.5111Z" fill="#E8E8E8"/>
<path d="M53.4688 12.8048H51.7384C50.5917 12.8048 49.662 11.8751 49.662 10.7284V2.07646C49.662 0.929734 50.4187 0.173038 51.5654 0.173038L51.7384 0H53.4688C54.6156 0 55.5453 0.929734 55.5453 2.07646V10.7284L55.3723 10.9014C55.3723 12.0481 54.6156 12.8048 53.4688 12.8048Z" fill="#F8F7F7"/>
<path d="M55.5453 10.7284V10.9014C55.5453 12.0487 54.6161 12.9779 53.4688 12.9779H51.5654C50.4182 12.9779 49.489 12.0487 49.489 10.9014V2.07646C49.489 0.929215 50.4182 0 51.5654 0H51.7385V9.34406C51.7385 10.1089 52.3579 10.7284 53.1228 10.7284H55.5453Z" fill="#E8E8E8"/>
<path d="M72.503 12.8048H70.7726C69.6259 12.8048 68.6962 11.8751 68.6962 10.7284V2.07646C68.6962 0.929734 69.4529 0.173038 70.5996 0.173038L70.7726 0H72.503C73.6497 0 74.5795 0.929734 74.5795 2.07646V10.7284L74.4064 10.9014C74.4064 12.0481 73.6497 12.8048 72.503 12.8048Z" fill="#F8F7F7"/>
<path d="M74.5795 10.7284V10.9014C74.5795 12.0487 73.6503 12.9779 72.503 12.9779H70.5996C69.4523 12.9779 68.5231 12.0487 68.5231 10.9014V2.07646C68.5231 0.929215 69.4523 0 70.5996 0H70.7726V9.34406C70.7726 10.1089 71.3921 10.7284 72.1569 10.7284H74.5795Z" fill="#E8E8E8"/>
<path d="M72.838 49.5754C72.838 44.0804 68.3833 39.6257 62.8883 39.6257C60.4741 39.6257 58.2608 40.4856 56.5378 41.9155C55.7822 42.5426 55.3018 43.3744 54.7592 44.1965C53.7228 45.7669 53.1688 47.5398 53.1688 49.5621C53.1688 55.0571 57.3933 59.3355 62.8883 59.3355C65.0509 59.3355 66.9149 58.7253 68.547 57.5535C69.4702 56.8908 70.4125 56.1838 71.0618 55.2506C72.1817 53.641 72.838 51.6848 72.838 49.5754Z" fill="url(#paint2_linear)"/>
<path d="M71.1014 55.194C69.3088 57.8103 66.2979 59.5252 62.889 59.5252C57.3933 59.5252 52.9393 55.0711 52.9393 49.5754C52.9393 46.4746 54.3565 43.706 56.5801 41.8804C55.4847 43.4793 54.8428 45.4139 54.8428 47.499C54.8428 52.9947 59.2968 57.4487 64.7925 57.4487C67.1873 57.4487 69.3832 56.6025 71.1014 55.194Z" fill="#FFD064"/>
<path d="M62.8841 55.3468C61.6926 55.3468 60.5287 54.954 59.607 54.2411C59.0401 53.8026 58.9359 52.9874 59.3744 52.4206C59.8132 51.8537 60.6281 51.7497 61.1949 52.188C61.6644 52.5512 62.2643 52.7512 62.8841 52.7512C63.5441 52.7512 64.1733 52.5277 64.6554 52.1216C65.2032 51.6599 66.0222 51.7298 66.4838 52.2782C66.9457 52.8263 66.8756 53.645 66.3272 54.1067C65.378 54.9064 64.1553 55.3468 62.8841 55.3468Z" fill="#FFD064"/>
<path d="M65.9736 49.5622C65.2567 49.5622 64.6758 48.9813 64.6758 48.2644V45.9505C64.6758 45.2336 65.2567 44.6527 65.9736 44.6527C66.6905 44.6527 67.2713 45.2336 67.2713 45.9505V48.2644C67.2713 48.9811 66.6903 49.5622 65.9736 49.5622Z" fill="#FFD064"/>
<path d="M59.803 49.5622C59.0861 49.5622 58.5052 48.9813 58.5052 48.2644V45.9505C58.5052 45.2336 59.0861 44.6527 59.803 44.6527C60.5199 44.6527 61.1008 45.2336 61.1008 45.9505V48.2644C61.1008 48.9811 60.5199 49.5622 59.803 49.5622Z" fill="#FFD064"/>
<path d="M17.8229 39.6257H13.497C13.0192 39.6257 12.6318 40.0132 12.6318 40.4909V44.8169C12.6318 45.2946 13.0192 45.6821 13.497 45.6821H17.8229C18.3007 45.6821 18.6881 45.2946 18.6881 44.8169V40.4909C18.6881 40.0132 18.3007 39.6257 17.8229 39.6257Z" fill="#FFE07D"/>
<path d="M29.9356 39.6257H25.6096C25.1319 39.6257 24.7444 40.0132 24.7444 40.4909V44.8169C24.7444 45.2946 25.1319 45.6821 25.6096 45.6821H29.9356C30.4134 45.6821 30.8008 45.2946 30.8008 44.8169V40.4909C30.8008 40.0132 30.4134 39.6257 29.9356 39.6257Z" fill="#FFE07D"/>
<path d="M42.0483 39.6257H37.7223C37.2445 39.6257 36.8571 40.0132 36.8571 40.4909V44.8169C36.8571 45.2946 37.2445 45.6821 37.7223 45.6821H42.0483C42.526 45.6821 42.9135 45.2946 42.9135 44.8169V40.4909C42.9135 40.0132 42.526 39.6257 42.0483 39.6257Z" fill="#FFE07D"/>
<path d="M17.8229 51.7384H13.497C13.0192 51.7384 12.6318 52.1258 12.6318 52.6036V56.9296C12.6318 57.4073 13.0192 57.7947 13.497 57.7947H17.8229C18.3007 57.7947 18.6881 57.4073 18.6881 56.9296V52.6036C18.6881 52.1258 18.3007 51.7384 17.8229 51.7384Z" fill="#FFE07D"/>
<path d="M29.9356 51.7384H25.6096C25.1319 51.7384 24.7444 52.1258 24.7444 52.6036V56.9296C24.7444 57.4073 25.1319 57.7947 25.6096 57.7947H29.9356C30.4134 57.7947 30.8008 57.4073 30.8008 56.9296V52.6036C30.8008 52.1258 30.4134 51.7384 29.9356 51.7384Z" fill="#BDE4FF"/>
<path d="M42.0483 51.7384H37.7223C37.2445 51.7384 36.8571 52.1258 36.8571 52.6036V56.9296C36.8571 57.4073 37.2445 57.7947 37.7223 57.7947H42.0483C42.526 57.7947 42.9135 57.4073 42.9135 56.9296V52.6036C42.9135 52.1258 42.526 51.7384 42.0483 51.7384Z" fill="#BDE4FF"/>
<path d="M17.8229 63.8511H13.497C13.0192 63.8511 12.6318 64.2385 12.6318 64.7163V69.0422C12.6318 69.52 13.0192 69.9074 13.497 69.9074H17.8229C18.3007 69.9074 18.6881 69.52 18.6881 69.0422V64.7163C18.6881 64.2385 18.3007 63.8511 17.8229 63.8511Z" fill="#BDE4FF"/>
<path d="M29.9356 63.8511H25.6096C25.1319 63.8511 24.7444 64.2385 24.7444 64.7163V69.0422C24.7444 69.52 25.1319 69.9074 25.6096 69.9074H29.9356C30.4134 69.9074 30.8008 69.52 30.8008 69.0422V64.7163C30.8008 64.2385 30.4134 63.8511 29.9356 63.8511Z" fill="#CCF49F"/>
<path d="M42.0483 63.8511H37.7223C37.2445 63.8511 36.8571 64.2385 36.8571 64.7163V69.0422C36.8571 69.52 37.2445 69.9074 37.7223 69.9074H42.0483C42.526 69.9074 42.9135 69.52 42.9135 69.0422V64.7163C42.9135 64.2385 42.526 63.8511 42.0483 63.8511Z" fill="#CCF49F"/>
<path d="M73.3682 71.2052H52.4306C51.7137 71.2052 51.1328 70.6244 51.1328 69.9075C51.1328 69.1906 51.7137 68.6097 52.4306 68.6097H73.3682C74.0851 68.6097 74.666 69.1906 74.666 69.9075C74.666 70.6244 74.0851 71.2052 73.3682 71.2052Z" fill="#E8E8E8"/>
<path d="M69.5614 66.014H56.2374C55.5205 66.014 54.9396 65.4331 54.9396 64.7162C54.9396 63.9993 55.5205 63.4185 56.2374 63.4185H69.5614C70.2783 63.4185 70.8592 63.9993 70.8592 64.7162C70.8592 65.4331 70.2783 66.014 69.5614 66.014Z" fill="#E8E8E8"/>
<path d="M73.3682 34.002H12.6318C11.9149 34.002 11.334 33.4211 11.334 32.7042C11.334 31.9873 11.9149 31.4064 12.6318 31.4064H73.3682C74.0851 31.4064 74.666 31.9873 74.666 32.7042C74.666 33.4211 74.0851 34.002 73.3682 34.002Z" fill="#E8E8E8"/>
<defs>
<linearGradient id="paint0_linear" x1="43.1795" y1="21.7824" x2="43.1795" y2="79.8571" gradientUnits="userSpaceOnUse">
<stop stop-color="white"/>
<stop offset="1" stop-color="#FFFDFD"/>
</linearGradient>
<linearGradient id="paint1_linear" x1="43.0865" y1="6.62701" x2="43.0865" y2="22.8926" gradientUnits="userSpaceOnUse">
<stop stop-color="#FF8086"/>
<stop offset="1" stop-color="#F8585F"/>
</linearGradient>
<linearGradient id="paint2_linear" x1="63.0034" y1="39.6257" x2="63.0034" y2="59.3355" gradientUnits="userSpaceOnUse">
<stop stop-color="#FFE07D"/>
<stop offset="1" stop-color="#FFFEFB"/>
</linearGradient>
</defs>
</svg>