<svg xmlns="http://www.w3.org/2000/svg" width="41" height="42" viewBox="0 0 41 42" fill="none">
    <path d="M1 8.01068V34.2857H36.247V8.01068M1 8.01068V2.24299H36.247V8.01068M1 8.01068H36.247M8.0494 0V5.12684M18.9439 0V5.12684M29.1976 0V5.12684M10.6128 13.1375H13.8171V16.3418H10.6128V13.1375ZM4.20427 13.1375H7.40854V16.3418H4.20427V13.1375ZM4.20427 19.5461H7.40854V22.7503H4.20427V19.5461ZM4.20427 25.9546H7.40854V29.1589H4.20427V25.9546ZM10.6128 25.9546H13.8171V29.1589H10.6128V25.9546ZM17.0214 25.9546H20.2256V29.1589H17.0214V25.9546ZM23.4299 25.9546H26.6342V29.1589H23.4299V25.9546ZM29.8384 25.9546H33.0427V29.1589H29.8384V25.9546ZM29.8384 19.5461H33.0427V22.7503H29.8384V19.5461ZM29.8384 13.1375H33.0427V16.3418H29.8384V13.1375ZM10.6128 19.5461H13.8171V22.7503H10.6128V19.5461ZM23.4299 13.1375H26.6342V16.3418H23.4299V13.1375ZM17.0214 13.1375H20.2256V16.3418H17.0214V13.1375ZM17.0214 19.5461H20.2256V22.7503H17.0214V19.5461ZM23.4299 19.5461H26.6342V22.7503H23.4299V19.5461Z" stroke="#7056E3" stroke-width="1.66667"/>
    <circle cx="23.2856" cy="23.4285" r="17.7143" fill="#8369EA" fill-opacity="0.1"/>
</svg>