<svg xmlns="http://www.w3.org/2000/svg" width="41" height="41" viewBox="0 0 41 41" fill="none">
<path d="M27.5469 24.6641C25.782 24.6641 24.3438 23.2259 24.3438 21.4609C24.3438 19.696 25.782 18.2578 27.5469 18.2578C29.3118 18.2578 30.75 19.696 30.75 21.4609C30.75 23.2259 29.3118 24.6641 27.5469 24.6641ZM27.5469 20.1797C26.839 20.1797 26.2656 20.753 26.2656 21.4609C26.2656 22.1688 26.839 22.7422 27.5469 22.7422C28.2548 22.7422 28.8281 22.1688 28.8281 21.4609C28.8281 20.753 28.2548 20.1797 27.5469 20.1797Z" fill="#7056E3"/>
<path d="M14.0938 8.64844C11.7971 8.64844 9.92969 6.78102 9.92969 4.48438C9.92969 2.18773 11.7971 0.320312 14.0938 0.320312C16.3904 0.320312 18.2578 2.18773 18.2578 4.48438C18.2578 6.78102 16.3904 8.64844 14.0938 8.64844ZM14.0938 2.24219C12.8573 2.24219 11.8516 3.24797 11.8516 4.48438C11.8516 5.72078 12.8573 6.72656 14.0938 6.72656C15.3302 6.72656 16.3359 5.72078 16.3359 4.48438C16.3359 3.24797 15.3302 2.24219 14.0938 2.24219Z" fill="#7056E3"/>
<path d="M33.9371 34.4208L33.3734 31.3234C32.8673 28.5462 30.6443 26.4482 27.8416 26.1087C24.411 25.6923 21.7652 23.0016 21.4097 19.5679L21.0605 16.227C20.6858 12.6363 17.6845 9.92969 14.0745 9.92969C10.1987 9.92969 7.04688 13.0816 7.04688 16.9573V24.6641C7.04688 25.9165 7.85086 26.9863 8.96875 27.3835V30.4297C8.96875 31.4899 9.83039 32.3516 10.8906 32.3516H10.9611L11.5345 39.7924C11.5729 40.2953 11.9925 40.6797 12.4922 40.6797C12.5178 40.6797 12.5434 40.6797 12.5659 40.6765C13.0944 40.6348 13.4916 40.1736 13.4499 39.6451L12.8894 32.3516H15.2981L14.7376 39.6451C14.6959 40.1736 15.0931 40.6348 15.6216 40.6765C15.6473 40.6797 15.6729 40.6797 15.6953 40.6797C16.1918 40.6797 16.6146 40.2953 16.653 39.7924L17.2264 32.3516H17.2969C18.3571 32.3516 19.2188 31.4899 19.2188 30.4297V24.9844C19.2188 24.4527 18.7895 24.0234 18.2578 24.0234C17.7261 24.0234 17.2969 24.4527 17.2969 24.9844V30.4297H10.8906V26.5859C10.8906 26.0542 10.4614 25.625 9.92969 25.625C9.40117 25.625 8.96875 25.1926 8.96875 24.6641V16.9573C8.96875 14.1418 11.259 11.8516 14.0745 11.8516C16.6979 11.8516 18.8792 13.8183 19.1515 16.4256L19.5006 19.7665C19.7889 22.5276 21.2495 24.9011 23.386 26.4002V31.3906C23.386 32.5502 23.8633 33.6008 24.632 34.3567L24.9908 39.7796C25.0228 40.2889 25.4456 40.6797 25.9485 40.6797C25.9677 40.6797 25.9902 40.6797 26.0094 40.6765C26.5379 40.6445 26.9415 40.1864 26.9095 39.6579L26.6468 35.4522C26.9383 35.5163 27.2394 35.5547 27.5533 35.5547H28.4534L28.1971 39.6579C28.1651 40.1864 28.5655 40.6445 29.0972 40.6765C29.1164 40.6765 29.1388 40.6797 29.158 40.6797C29.6609 40.6797 30.0838 40.2889 30.1158 39.7796L30.4361 34.6546C30.4521 34.3888 30.3592 34.1293 30.1766 33.9371C29.9941 33.7449 29.7346 33.6328 29.4688 33.6328H27.5469C26.3105 33.6328 25.3047 32.627 25.3047 31.3906V27.438C26.0318 27.723 26.8038 27.9216 27.6109 28.0177C29.5745 28.2548 31.1312 29.7218 31.4835 31.6661L32.0473 34.7635C32.1306 35.228 32.5373 35.5515 32.9922 35.5515C33.0498 35.5515 33.1075 35.5451 33.1652 35.5355C33.6873 35.4458 34.0332 34.9429 33.9371 34.4208Z" fill="#7056E3"/>
</svg>