<?xml version="1.0" encoding="UTF-8" standalone="no"?> <svg width="512" height="512" viewBox="0 0 512 512" fill="none" xmlns="http://www.w3.org/2000/svg">
<path d="M32 96H480V416H32V96Z" fill="#FFE70E"/>
<path d="M32 328H480V416H32V328Z" fill="#E92B2B"/>
<path d="M32 240H480V328H32V240Z" fill="#2A2FAF"/>
<path d="M216 272V232H296V272C296 294.091 278.091 312 256 312C233.909 312 216 294.091 216 272Z" fill="#FFE70E"/>
<path d="M232 272V224H280V272C280 285.255 269.255 296 256 296C242.745 296 232 285.255 232 272Z" fill="#38A9FB"/>
<path d="M194.98 193.789L231.617 215.771C231.866 215.92 232.15 215.999 232.44 215.999H279.554C279.844 215.999 280.129 215.92 280.377 215.771L317.014 193.789C318.186 193.086 317.994 191.331 316.697 190.899L284.574 180.191C284.203 180.068 283.798 180.084 283.438 180.239L256.627 191.729C256.225 191.901 255.769 191.901 255.367 191.729L228.556 180.239C228.196 180.084 227.792 180.068 227.42 180.191L195.297 190.899C194.001 191.331 193.808 193.086 194.98 193.789Z" fill="#1D1D1D"/>
</svg>
