<?xml version="1.0" encoding="UTF-8" standalone="no"?> <svg width="512" height="512" viewBox="0 0 512 512" fill="none" xmlns="http://www.w3.org/2000/svg">
<path d="M32 96H480V416H32V96Z" fill="#FBFBFB"/>
<path d="M256 96H480V256H256V96Z" fill="#E92B2B"/>
<path d="M32 256H256V416H32V256Z" fill="#2A2FAF"/>
<path d="M143.995 136L152.976 163.639H182.038L158.526 180.721L167.507 208.361L143.995 191.279L120.484 208.361L129.465 180.721L105.953 163.639H135.015L143.995 136Z" fill="#2A2FAF"/>
<path d="M367.995 296L376.976 323.639H406.038L382.526 340.721L391.507 368.361L367.995 351.279L344.484 368.361L353.465 340.721L329.953 323.639H359.015L367.995 296Z" fill="#E92B2B"/>
</svg>
