<?xml version="1.0" encoding="UTF-8" standalone="no"?> <svg width="512" height="512" viewBox="0 0 512 512" fill="none" xmlns="http://www.w3.org/2000/svg">
<path d="M32 96H480V416H32V96Z" fill="#FBFBFB"/>
<path d="M32 96H480V200H32V96Z" fill="#E92B2B"/>
<path d="M32 312H480V416H32V312Z" fill="#2A2FAF"/>
<path fill-rule="evenodd" clip-rule="evenodd" d="M256 296C278.091 296 296 278.091 296 256C296 233.909 278.091 216 256 216C233.909 216 216 233.909 216 256C216 278.091 233.909 296 256 296ZM256 304C282.51 304 304 282.51 304 256C304 229.49 282.51 208 256 208C229.49 208 208 229.49 208 256C208 282.51 229.49 304 256 304Z" fill="#E92B2B"/>
<path fill-rule="evenodd" clip-rule="evenodd" d="M240.157 240.16C237.024 243.292 234.89 247.284 234.026 251.629C233.162 255.974 233.605 260.478 235.301 264.571C236.996 268.664 239.867 272.163 243.551 274.624C247.235 277.085 251.565 278.399 255.996 278.399C260.426 278.399 264.757 277.085 268.441 274.624C272.124 272.163 274.995 268.664 276.691 264.571C278.386 260.478 278.83 255.974 277.965 251.629C277.101 247.284 274.968 243.292 271.835 240.16L278.623 233.372C283.098 237.847 286.146 243.549 287.381 249.756C288.616 255.963 287.982 262.398 285.56 268.245C283.138 274.092 279.036 279.09 273.774 282.606C268.512 286.122 262.325 287.999 255.996 287.999C249.667 287.999 243.48 286.122 238.218 282.606C232.955 279.09 228.854 274.092 226.432 268.245C224.01 262.398 223.376 255.963 224.611 249.756C225.845 243.549 228.893 237.847 233.368 233.372L240.157 240.16Z" fill="#32AB45"/>
<path d="M255.998 240L259.59 251.056H271.215L261.81 257.889L265.403 268.944L255.998 262.111L246.594 268.944L250.186 257.889L240.781 251.056H252.406L255.998 240Z" fill="#FFE70E"/>
</svg>
