<svg xmlns="http://www.w3.org/2000/svg" width="47" height="86" viewBox="0 0 47 86" fill="none">
<path d="M0.453125 53.75C0.453125 61.0902 4.84383 64.1953 8.04985 66.4622C10.0638 67.8863 11.2031 68.7469 11.2031 69.875C11.2031 76.3042 9.91161 82.8523 9.89851 82.9171C9.84001 83.2095 9.84713 83.5113 9.91935 83.8007C9.99158 84.09 10.1271 84.3597 10.3162 84.5904C10.5052 84.821 10.7431 85.0068 11.0127 85.1344C11.2823 85.262 11.5768 85.3281 11.875 85.3281H25.3125C25.7354 85.3282 26.1477 85.1952 26.4908 84.948C26.834 84.7008 27.0907 84.3519 27.2247 83.9508C29.3772 77.4929 29.8698 68.7646 29.9824 64.9979C32.4809 64.6348 34.8884 63.8031 37.0782 62.5465C41.2124 60.134 46.1406 55.0185 46.1406 44.3438C46.1406 37.1097 42.6217 30.5211 35.9641 25.29C34.392 24.0608 32.7292 22.9523 30.9898 21.974C33.5248 20.4922 35.3906 18.0031 35.3906 14.7812C35.3906 10.1902 32.2914 7.86581 29.0103 5.4049C27.4778 4.25532 25.7407 2.95255 24.0502 1.26229C23.6722 0.884276 23.1596 0.6719 22.625 0.671875H6.5C6.19676 0.671883 5.89744 0.740309 5.62432 0.872058C5.35119 1.00381 5.11132 1.19548 4.92256 1.4328C4.7338 1.67013 4.60102 1.94698 4.53411 2.24274C4.4672 2.53851 4.46788 2.84555 4.53611 3.14102C4.57575 3.31318 8.51562 20.53 8.51562 32.25C8.51562 35.3774 7.00727 37.6221 5.26039 40.2213C3.00709 43.5743 0.453125 47.3747 0.453125 53.75Z" fill="url(#paint0_linear)"/>
<path d="M24.1937 56.891C24.4415 56.9954 24.7077 57.0492 24.9766 57.0492C25.2455 57.0492 25.5117 56.9954 25.7595 56.891C26.0499 56.7685 32.9002 53.8324 35.6696 48.4603C37.699 44.5241 36.7362 39.605 33.4299 37.0179C31.4234 35.4478 28.2602 34.6892 24.9766 36.7742C21.6931 34.689 18.5296 35.4473 16.5232 37.0179C13.2169 39.6046 12.2541 44.5241 14.2835 48.4603C17.053 53.8326 23.9033 56.7687 24.1937 56.891Z" fill="url(#paint1_linear)"/>
<defs>
<linearGradient id="paint0_linear" x1="-7.69084" y1="66.5973" x2="41.5677" y2="17.3386" gradientUnits="userSpaceOnUse">
<stop offset="0.015" stop-color="#FFDBBB"/>
<stop offset="1" stop-color="#FFEDDD"/>
</linearGradient>
<linearGradient id="paint1_linear" x1="17.0858" y1="52.1531" x2="32.8674" y2="36.3712" gradientUnits="userSpaceOnUse">
<stop offset="0.015" stop-color="#FB9D8D"/>
<stop offset="1" stop-color="#FDCEC6"/>
</linearGradient>
</defs>
</svg>