<svg xmlns="http://www.w3.org/2000/svg" width="86" height="85" viewBox="0 0 86 85" fill="none">
<path d="M57.7813 53.75C71.8818 53.75 83.3125 42.3193 83.3125 28.2188C83.3125 14.1182 71.8818 2.6875 57.7813 2.6875C43.6807 2.6875 32.25 14.1182 32.25 28.2188C32.25 42.3193 43.6807 53.75 57.7813 53.75Z" fill="url(#paint0_linear)"/>
<path d="M85.3281 28.2188C85.3281 13.0293 72.9707 0.671875 57.7813 0.671875C42.5918 0.671875 30.2344 13.0293 30.2344 28.2188C30.2344 43.4082 42.5918 55.7656 57.7813 55.7656C72.9707 55.7656 85.3281 43.4082 85.3281 28.2188ZM34.2656 28.2188C34.2656 15.2516 44.8141 4.70312 57.7813 4.70312C70.7484 4.70312 81.2969 15.2516 81.2969 28.2188C81.2969 41.1859 70.7484 51.7344 57.7813 51.7344C44.8141 51.7344 34.2656 41.1859 34.2656 28.2188Z" fill="#E2F8F1"/>
<path d="M60.4687 36.2812C67.1479 36.2812 72.5625 30.8667 72.5625 24.1875C72.5625 17.5083 67.1479 12.0938 60.4687 12.0938C53.7896 12.0938 48.375 17.5083 48.375 24.1875C48.375 30.8667 53.7896 36.2812 60.4687 36.2812Z" fill="url(#paint1_linear)"/>
<path d="M74.5781 24.1875C74.5781 21.3969 73.7506 18.669 72.2002 16.3488C70.6499 14.0285 68.4463 12.22 65.8681 11.1521C63.29 10.0842 60.453 9.80483 57.7161 10.3492C54.9791 10.8937 52.4651 12.2374 50.4919 14.2107C48.5186 16.1839 47.1748 18.698 46.6304 21.4349C46.086 24.1719 46.3654 27.0088 47.4333 29.5869C48.5012 32.1651 50.3097 34.3687 52.6299 35.919C54.9502 37.4694 57.6781 38.2969 60.4687 38.2969C64.2094 38.2924 67.7956 36.8045 70.4406 34.1594C73.0857 31.5144 74.5736 27.9282 74.5781 24.1875ZM50.3906 24.1875C50.3906 22.1942 50.9816 20.2457 52.089 18.5884C53.1964 16.9311 54.7704 15.6393 56.612 14.8765C58.4535 14.1137 60.4799 13.9142 62.4348 14.303C64.3898 14.6919 66.1856 15.6517 67.595 17.0612C69.0045 18.4706 69.9643 20.2664 70.3532 22.2214C70.742 24.1763 70.5425 26.2027 69.7797 28.0442C69.0169 29.8858 67.7251 31.4598 66.0678 32.5672C64.4105 33.6746 62.462 34.2656 60.4687 34.2656C57.7967 34.2626 55.2351 33.1998 53.3457 31.3105C51.4564 29.4211 50.3936 26.8595 50.3906 24.1875Z" fill="#FEF7DE"/>
<path d="M60.4687 30.2344C63.8083 30.2344 66.5156 27.5271 66.5156 24.1875C66.5156 20.8479 63.8083 18.1406 60.4687 18.1406C57.1292 18.1406 54.4219 20.8479 54.4219 24.1875C54.4219 27.5271 57.1292 30.2344 60.4687 30.2344Z" fill="url(#paint2_linear)"/>
<path d="M35.2295 60.3075C35.6452 58.2294 36.2816 57.9007 37.8196 57.106C38.8244 56.5872 40.0744 55.9413 41.3301 54.6863C41.7082 54.3082 41.9206 53.7954 41.9206 53.2607C41.9206 52.726 41.7082 52.2133 41.3301 51.8352C40.952 51.4571 40.4392 51.2447 39.9046 51.2447C39.3699 51.2447 38.8571 51.4571 38.479 51.8352C37.6672 52.647 36.8425 53.0731 35.9694 53.5241C34.1427 54.4677 32.0725 55.5374 31.2767 59.5164C30.8141 61.8285 30.1063 63.597 25.6517 63.597C25.1172 63.597 24.6045 63.8094 24.2265 64.1874C23.8485 64.5654 23.6361 65.0781 23.6361 65.6126C23.6361 66.1472 23.8485 66.6599 24.2265 67.0379C24.6045 67.4159 25.1172 67.6283 25.6517 67.6283C32.9241 67.6288 34.6018 63.4504 35.2295 60.3075Z" fill="#FDCEC6"/>
<path d="M47.9807 53.736C51.253 50.4635 51.6088 46.9114 48.9309 44.2342C46.2529 41.5569 42.7016 41.912 39.429 45.1844C38.0105 46.6029 37.1368 48.0629 36.8317 49.5234C36.5548 50.8503 36.6157 52.823 38.4788 54.6862C39.6714 55.8788 41.0362 56.4691 42.473 56.4691C44.2633 56.4691 46.1654 55.5513 47.9807 53.736Z" fill="url(#paint3_linear)"/>
<path d="M37.1303 77.4105C37.5459 75.3326 38.1825 75.0039 39.7206 74.2092C40.725 73.6902 41.9754 73.0443 43.2311 71.7891C43.4191 71.6021 43.5684 71.3799 43.6703 71.1351C43.7723 70.8903 43.8249 70.6278 43.8253 70.3627C43.8256 70.0975 43.7736 69.8349 43.6723 69.5899C43.5709 69.3448 43.4223 69.1222 43.2348 68.9347C43.0473 68.7472 42.8246 68.5986 42.5795 68.4973C42.3345 68.396 42.0719 68.3441 41.8067 68.3445C41.5416 68.3449 41.2791 68.3976 41.0343 68.4996C40.7896 68.6015 40.5673 68.7508 40.3804 68.9388C39.5686 69.7506 38.7439 70.1766 37.8709 70.6276C36.0443 71.5714 33.974 72.6409 33.1782 76.6201C32.7158 78.932 32.008 80.7007 27.5531 80.7007C27.0185 80.7007 26.5058 80.913 26.1278 81.2911C25.7498 81.6691 25.5375 82.1817 25.5375 82.7163C25.5375 83.2509 25.7498 83.7636 26.1278 84.1416C26.5058 84.5196 27.0185 84.7319 27.5531 84.7319C34.8251 84.7319 36.502 80.5535 37.1303 77.4105Z" fill="#FDCEC6"/>
<path d="M49.8812 70.8391C53.1534 67.5667 53.5093 64.0147 50.8312 61.3374C48.9683 59.4742 46.9952 59.4134 45.6687 59.6903C44.2074 59.9952 42.7481 60.869 41.3296 62.2875C38.0572 65.5599 37.7015 69.1119 40.3792 71.7893C41.5718 72.9819 42.9365 73.5721 44.3735 73.5721C46.1639 73.5721 48.0658 72.6544 49.8812 70.8391Z" fill="url(#paint4_linear)"/>
<path d="M12.4254 62.2079C12.841 60.1298 13.4776 59.8009 15.0157 59.0064C16.0201 58.4876 17.2703 57.8416 18.5254 56.5865C18.9017 56.2081 19.1126 55.696 19.1119 55.1624C19.1111 54.6287 18.8988 54.1172 18.5214 53.7399C18.1441 53.3625 17.6325 53.1502 17.0989 53.1495C16.5653 53.1488 16.0532 53.3598 15.6748 53.7361C14.863 54.5479 14.0383 54.9738 13.1654 55.425C11.3387 56.3686 9.26848 57.4383 8.47247 61.4173C8.01022 63.7294 7.3024 65.4979 2.84753 65.4979C2.31296 65.4979 1.80028 65.7103 1.42227 66.0883C1.04427 66.4663 0.831909 66.979 0.831909 67.5135C0.831909 68.0481 1.04427 68.5608 1.42227 68.9388C1.80028 69.3168 2.31296 69.5292 2.84753 69.5292C10.1202 69.5292 11.7969 65.3508 12.4254 62.2079Z" fill="#FDCEC6"/>
<path d="M25.1767 55.6363C28.4489 52.3641 28.8048 48.8119 26.1267 46.1347C24.2638 44.2714 22.2905 44.2108 20.9642 44.4876C19.5029 44.7924 18.0436 45.6664 16.6251 47.0849C13.3527 50.3571 12.9969 53.9091 15.6747 56.5865C16.8673 57.7791 18.232 58.3695 19.669 58.3694C21.4594 58.3692 23.3613 57.4517 25.1767 55.6363Z" fill="url(#paint5_linear)"/>
<defs>
<linearGradient id="paint0_linear" x1="32.25" y1="28.2188" x2="83.3125" y2="28.2188" gradientUnits="userSpaceOnUse">
<stop offset="0.015" stop-color="#8AE4C8"/>
<stop offset="1" stop-color="#E2F8F1"/>
</linearGradient>
<linearGradient id="paint1_linear" x1="51.9171" y1="32.7391" x2="69.0204" y2="15.6359" gradientUnits="userSpaceOnUse">
<stop offset="0.015" stop-color="#FBDE7D"/>
<stop offset="1" stop-color="#FDEEBE"/>
</linearGradient>
<linearGradient id="paint2_linear" x1="54.4219" y1="24.1875" x2="66.5156" y2="24.1875" gradientUnits="userSpaceOnUse">
<stop offset="0.015" stop-color="#FFB676"/>
<stop offset="1" stop-color="#FFDBBB"/>
</linearGradient>
<linearGradient id="paint3_linear" x1="38.4788" y1="54.6862" x2="48.9309" y2="44.2342" gradientUnits="userSpaceOnUse">
<stop offset="0.015" stop-color="#FB9D8D"/>
<stop offset="1" stop-color="#FEE7E2"/>
</linearGradient>
<linearGradient id="paint4_linear" x1="3408.53" y1="6044.66" x2="4279.9" y2="5172.38" gradientUnits="userSpaceOnUse">
<stop offset="0.015" stop-color="#FB9D8D"/>
<stop offset="1" stop-color="#FEE7E2"/>
</linearGradient>
<linearGradient id="paint5_linear" x1="1322.06" y1="4761.97" x2="2193.42" y2="3889.69" gradientUnits="userSpaceOnUse">
<stop offset="0.015" stop-color="#FB9D8D"/>
<stop offset="1" stop-color="#FEE7E2"/>
</linearGradient>
</defs>
</svg>