<svg xmlns="http://www.w3.org/2000/svg" width="86" height="80" viewBox="0 0 86 80" fill="none">
<path d="M17.3413 36.0849C17.3413 55.0607 31.8427 69.562 50.8184 69.562C62.3574 69.562 73.3182 64.448 80.4116 55.1174C83.9476 49.6306 86.0002 43.0977 86.0002 36.0849C86.0002 16.6545 70.2488 0.90332 50.8184 0.90332C43.8056 0.90332 37.2727 2.9559 31.7859 6.49187C22.4553 13.5851 17.3413 24.5459 17.3413 36.0849Z" fill="#FF9A9F"/>
<path d="M51.6707 68.7095C32.695 68.7095 18.1936 54.2082 18.1936 35.2324C18.1936 23.6934 23.4483 13.1515 31.7859 6.4917C22.0705 12.7529 15.6367 23.6673 15.6367 36.0847C15.6367 55.5151 31.388 71.2665 50.8184 71.2665C63.236 71.2665 74.1502 64.8326 80.4116 55.1173C73.7517 63.4549 63.2097 68.7095 51.6707 68.7095Z" fill="#FF8086"/>
<path d="M50.8184 6.01709C43.166 6.01709 36.1829 8.87734 30.8756 13.5851C24.3587 20.102 22.4554 26.7278 22.4554 34.3802C22.4554 50.9861 35.9171 64.4478 52.5231 64.4478C60.1754 64.4478 67.8851 61.4608 73.3182 56.0277C78.0258 50.7204 80.886 43.7371 80.886 36.0849C80.886 19.4789 67.4243 6.01709 50.8184 6.01709Z" fill="#FFCBCE"/>
<path d="M23.3076 33.528C23.3076 25.8756 26.1678 18.8925 30.8754 13.5852C24.6655 19.0935 20.7506 27.1314 20.7506 36.085C20.7506 52.6909 34.2123 66.1526 50.8182 66.1526C59.7718 66.1526 67.8097 62.2375 73.318 56.0278C68.0107 60.7354 61.0274 63.5956 53.3752 63.5956C36.7695 63.5956 23.3076 50.1339 23.3076 33.528Z" fill="#FFB3B7"/>
<path d="M57.6041 17.8123C54.1043 17.8123 50.8837 19.0082 48.3289 21.0138C45.541 23.875 44.2751 27.6415 44.2751 31.1413C44.2751 39.4444 51.0059 46.1752 59.309 46.1752C62.8088 46.1752 66.4196 45.0251 69.4365 42.1214C71.4421 39.5664 72.638 36.346 72.638 32.8461C72.638 24.5431 65.907 17.8123 57.6041 17.8123Z" fill="#FF9A9F"/>
<path d="M45.1272 30.2891C45.1272 26.7893 46.3232 23.5687 48.3288 21.0139C44.8226 23.7663 42.5703 28.0431 42.5703 32.8461C42.5703 41.1492 49.3011 47.88 57.6041 47.88C62.4072 47.88 66.6842 45.6275 69.4364 42.1215C66.8814 44.127 63.661 45.323 60.1611 45.323C51.8581 45.323 45.1272 38.592 45.1272 30.2891Z" fill="#FF8086"/>
<path d="M37.6926 49.2108C36.4983 48.0166 34.4607 48.0195 32.6446 49.0613C30.2857 51.4203 30.7475 53.7676 31.9417 54.9617C33.136 56.156 35.4832 56.6178 37.8421 54.2588C38.884 52.4427 38.8867 50.4051 37.6926 49.2108Z" fill="#E6F7FE"/>
<path d="M32.7939 54.1093C31.5996 52.915 31.6025 50.8774 32.6444 49.0613C32.1376 49.3521 31.648 49.7235 31.1988 50.1727C29.567 51.8046 28.9593 53.969 29.5376 55.5574L25.0372 60.0579C24.1308 60.9642 23.147 61.0305 21.9016 61.1142C20.5867 61.2027 18.95 61.3128 17.5718 62.691C15.9486 64.3142 16.3039 66.6493 16.6172 68.7092C16.9842 71.1213 17.133 72.7939 15.9082 74.0188C14.7146 75.2124 13.0187 75.0525 10.3503 74.6927C7.30583 74.2822 3.51706 73.7713 0.374349 76.914C-0.124946 77.4133 -0.124946 78.2229 0.374349 78.722C0.623911 78.9716 0.951205 79.0965 1.27833 79.0965C1.60545 79.0965 1.93275 78.9717 2.18231 78.722C4.4299 76.4744 7.1398 76.8397 10.0086 77.2267C12.7413 77.595 15.5669 77.976 17.716 75.8268C19.9469 73.5961 19.5021 70.6731 19.1447 68.3244C18.8498 66.3854 18.7182 65.1601 19.3794 64.499C20.0464 63.832 20.7994 63.751 22.0729 63.6654C23.4928 63.5698 25.2596 63.451 26.8448 61.8658L31.3453 57.3653C32.9337 57.9437 35.0981 57.336 36.7299 55.7042C37.1791 55.255 37.5507 54.7654 37.8414 54.2586C36.0257 55.3007 33.9882 55.3036 32.7939 54.1093Z" fill="#D3EFFD"/>
</svg>