<?xml version="1.0" encoding="UTF-8" standalone="no"?> <svg width="512" height="512" viewBox="0 0 512 512" fill="none" xmlns="http://www.w3.org/2000/svg">
<path d="M32 96H480V416H32V96Z" fill="#FBFBFB"/>
<path d="M32 288H480V320H32V288Z" fill="#2A2FAF"/>
<path d="M32 352H480V384H32V352Z" fill="#2A2FAF"/>
<path d="M32 224H480V256H32V224Z" fill="#2A2FAF"/>
<path d="M32 160H480V192H32V160Z" fill="#2A2FAF"/>
<path d="M32 96H480V128H32V96Z" fill="#2A2FAF"/>
<path d="M32 96H192V256H32V96Z" fill="#FBFBFB"/>
<path fill-rule="evenodd" clip-rule="evenodd" d="M121.669 148.16L112.059 120L102.56 147.834L77.8118 130.47L87.2235 158.697H56.118L80.9898 175.902L56 192.944L87.0976 193.144L77.4855 221.31L102.363 204.101L111.665 232L121.473 203.906L146.632 221.31L137.13 193.466L167.879 193.664L142.844 176.098L168 158.697H137.257L146.957 130.915L121.669 148.16Z" fill="#FFE70E"/>
</svg>
